# xmcd
#
# Track frame offsets:
#	150
#	28967
#	58062
#	73517
#	107180
#	141002
#	157712
#	172715
#	210950
#
# Disc length: 3023 seconds
#
# Revision: 0
# Processed by: cddbd v1.4PL0 Copyright (c) Steve Scherf et al.
# Submitted via: dBpowerAMP V4.0
#
DISCID=700bcd09
DTITLE=Harold Melvin and The Blue Notes - The Best Of
DYEAR=1990
DGENRE=R&B
TTITLE0=The Love I Lost
TTITLE1=Bad Luck
TTITLE2=If You Don't Know Me By Now
TTITLE3=Be For Real
TTITLE4=Wake Up Everybody
TTITLE5=Hope That We Can Be Together Soon
TTITLE6=Where Are All My Friends
TTITLE7=I Miss You
TTITLE8=Satisfaction Guaranteed (Or Take Your Love Back)
EXTD=
EXTT0=
EXTT1=
EXTT2=
EXTT3=
EXTT4=
EXTT5=
EXTT6=
EXTT7=
EXTT8=
PLAYORDER=
